<svg xmlns="http://www.w3.org/2000/svg" width="40" height="40"><defs><linearGradient id="a" x1="0%" x2="100%" y1="100%" y2="0%"><stop offset="0%" stop-color="#055f4e"/><stop offset="100%" stop-color="#56c0a7"/></linearGradient></defs><g fill="none" fill-rule="evenodd"><path fill="url(#a)" d="M0 0h40v40H0z"/><path fill="#fff" d="M20.438 21.91a1.501 1.501 0 0 1 0-3 1.501 1.501 0 0 1 0 3m0-4a2.503 2.503 0 0 0-2.5 2.5c0 1.379 1.121 2.5 2.5 2.5s2.5-1.121 2.5-2.5c0-1.377-1.121-2.5-2.5-2.5m3.957 5.73a.5.5 0 0 0-.254.254l-3.655 8.223-3.631-8.17a.5.5 0 0 0-.254-.254l-7.869-3.497 8.107-3.603a.5.5 0 0 0 .254-.254l3.393-7.634 3.417 7.687a.5.5 0 0 0 .254.254l7.987 3.55zm4.414 5.107-4.894-1.882 1.062-2.39 1.869-.83zm-16.742-.118 1.924-5.001 2.028.9.98 2.205zm.186-16.436 4.773 1.835-.769 1.729-2.249.999zm16.37-.118-1.794 4.664-2.09-.93-.852-1.914zm4.956 7.664-5.835-2.594 2.215-5.761a.499.499 0 0 0-.646-.647l-5.832 2.243-2.538-5.71c-.16-.36-.754-.36-.914 0l-2.597 5.843-5.869-2.258a.5.5 0 0 0-.533.114.5.5 0 0 0-.113.533l2.176 5.66-5.796 2.577a.5.5 0 0 0 0 .914l5.779 2.568-2.346 6.099a.5.5 0 0 0 .646.647l6.029-2.32 2.624 5.904a.5.5 0 0 0 .914 0l2.565-5.77 5.992 2.304a.51.51 0 0 0 .533-.113.5.5 0 0 0 .113-.534l-2.385-6.2 5.818-2.585a.5.5 0 0 0 0-.914"/></g></svg>