<svg xmlns="http://www.w3.org/2000/svg" width="40" height="40"><defs><linearGradient id="a" x1="0%" x2="100%" y1="100%" y2="0%"><stop offset="0%" stop-color="#bd0816"/><stop offset="100%" stop-color="#ff5252"/></linearGradient></defs><g fill="none" fill-rule="evenodd"><path fill="url(#a)" d="M0 0h40v40H0z"/><path fill="#fff" d="M20 27.957 8.658 22.48l2.997-1.422 8.127 3.927a.5.5 0 0 0 .436 0l8.126-3.926 2.998 1.421zm11.27-1.369L20 32.049 8.731 26.588l3.337-1.35 7.714 3.724a.5.5 0 0 0 .436 0l7.714-3.724zM33 22.475a.5.5 0 0 0-.286-.45L29.5 20.5l3.22-1.555a.5.5 0 0 0 0-.901l-8.266-3.994.02.119c.054.327.02.655-.083.962l6.961 3.364-11.35 5.485L8.65 18.495l6.962-3.365a2 2 0 0 1-.083-.967l.02-.113-8.266 3.994a.5.5 0 0 0 0 .901L10.5 20.5l-3.214 1.525a.498.498 0 0 0-.004.902l3.572 1.724-3.542 1.433a.501.501 0 0 0-.03.913l12.5 6.058a.5.5 0 0 0 .436 0l12.5-6.058a.501.501 0 0 0-.03-.913l-3.542-1.433 3.572-1.724a.5.5 0 0 0 .282-.452M21.553 11.301a.5.5 0 0 0-.046.306L21.91 14h-3.816l.412-2.403a.5.5 0 0 0-.046-.309L16.811 8h6.382zm2.872-4.064A.5.5 0 0 0 24 7h-8a.5.5 0 0 0-.447.725l1.938 3.864-.484 2.827A.497.497 0 0 0 17.5 15h2v4h1v-4h2a.498.498 0 0 0 .493-.583l-.473-2.816 1.927-3.878a.5.5 0 0 0-.022-.486"/></g></svg>